<?xml version="1.0" encoding="utf-8"?>
<!-- Generator: Adobe Illustrator 16.0.0, SVG Export Plug-In . SVG Version: 6.00 Build 0)  -->
<!DOCTYPE svg PUBLIC "-//W3C//DTD SVG 1.1//EN" "http://www.w3.org/Graphics/SVG/1.1/DTD/svg11.dtd">
<svg version="1.1" id="Layer_1" xmlns="http://www.w3.org/2000/svg" xmlns:xlink="http://www.w3.org/1999/xlink" x="0px" y="0px"
	 width="1100px" height="143.724px" viewBox="0 0 1100 143.724" enable-background="new 0 0 1100 143.724" xml:space="preserve">
<g>
	<path fill="#0A0A16" d="M0,30.038h6.957v106.873h64.029v6.008H0V30.038z"/>
	<path fill="#0A0A16" d="M199.2,30.038l44.583,112.88h-7.431l-14.228-36.203h-54.069l-14.387,36.203h-7.43l45.374-112.88H199.2z
		 M219.911,100.708l-24.189-63.871h-0.316l-25.138,63.871H219.911z"/>
	<path fill="#0A0A16" d="M681.23,145.606c-33.832,0-53.752-26.086-53.752-59.127c0-33.042,19.92-59.128,53.752-59.128
		c33.674,0,53.594,26.086,53.594,59.128C734.824,119.52,714.904,145.606,681.23,145.606z M681.23,139.598
		c29.406,0,46.639-24.188,46.639-53.119c0-28.933-17.232-53.121-46.639-53.121c-29.564,0-46.797,24.188-46.797,53.121
		C634.434,115.411,651.666,139.598,681.23,139.598z"/>
</g>
</svg>
