<?xml version="1.0" encoding="utf-8"?>
<!-- Generator: Adobe Illustrator 16.0.0, SVG Export Plug-In . SVG Version: 6.00 Build 0)  -->
<!DOCTYPE svg PUBLIC "-//W3C//DTD SVG 1.1//EN" "http://www.w3.org/Graphics/SVG/1.1/DTD/svg11.dtd">
<svg version="1.1" id="Layer_1" xmlns="http://www.w3.org/2000/svg" xmlns:xlink="http://www.w3.org/1999/xlink" x="0px" y="0px"
	 width="1100px" height="143.724px" viewBox="0 0 1100 143.724" enable-background="new 0 0 1100 143.724" xml:space="preserve">
<g>
	<path fill="#0A0A16" d="M453.89,30.038h47.113c19.762,0,35.729,7.272,35.729,29.09c0,15.177-9.17,26.401-24.188,28.931v0.316
		c16.758,1.897,20.868,12.49,21.975,24.189c1.107,11.699-0.79,24.346,3.795,30.354h-7.747c-4.269-7.746-1.739-20.711-3.004-31.619
		c-1.423-10.908-6.798-19.762-26.56-19.762h-40.157v51.381h-6.956V30.038z M501.003,85.53c16.441,0,28.773-7.746,28.773-25.928
		c0-17.074-13.597-23.556-28.773-23.556h-40.157V85.53H501.003z"/>
	<path fill="#0A0A16" d="M902.406,62.291c-0.791-19.289-15.336-28.932-36.205-28.932c-12.805,0-30.986,5.375-30.986,24.03
		c0,18.182,19.287,21.186,38.418,25.138c19.287,3.953,38.574,8.854,38.574,31.303c0,23.398-22.449,31.777-39.682,31.777
		c-26.402,0-47.902-10.908-47.586-39.998h6.955c-1.422,24.664,18.34,33.99,40.631,33.99c13.596,0,32.727-6.164,32.727-25.77
		c0-19.129-19.287-22.449-38.576-26.401c-19.129-3.952-38.418-8.537-38.418-30.039c0-21.659,20.08-30.038,37.943-30.038
		c23.557,0,42.055,10.118,43.16,34.94H902.406z"/>
	<path fill="#0A0A16" d="M1084.055,136.911v6.008h-76.676V30.038h75.887v6.008h-68.932v45.215h64.82v6.008h-64.82v49.642H1084.055z
		 M1051.645,0h8.064l-21.186,22.133h-5.85L1051.645,0z"/>
</g>
</svg>
